<svg id="visual" viewBox="0 0 600 900" width="600" height="900" xmlns="http://www.w3.org/2000/svg" xmlns:xlink="http://www.w3.org/1999/xlink" version="1.1"><rect x="0" y="0" width="600" height="900" fill="#76ABAE"></rect><defs><linearGradient id="grad1_0" x1="0%" y1="0%" x2="100%" y2="100%"><stop offset="30%" stop-color="#eeeeee" stop-opacity="1"></stop><stop offset="70%" stop-color="#eeeeee" stop-opacity="1"></stop></linearGradient></defs><defs><linearGradient id="grad1_1" x1="0%" y1="0%" x2="100%" y2="100%"><stop offset="30%" stop-color="#eeeeee" stop-opacity="1"></stop><stop offset="70%" stop-color="#dde4e5" stop-opacity="1"></stop></linearGradient></defs><defs><linearGradient id="grad1_2" x1="0%" y1="0%" x2="100%" y2="100%"><stop offset="30%" stop-color="#ccdbdb" stop-opacity="1"></stop><stop offset="70%" stop-color="#dde4e5" stop-opacity="1"></stop></linearGradient></defs><defs><linearGradient id="grad1_3" x1="0%" y1="0%" x2="100%" y2="100%"><stop offset="30%" stop-color="#ccdbdb" stop-opacity="1"></stop><stop offset="70%" stop-color="#bbd1d2" stop-opacity="1"></stop></linearGradient></defs><defs><linearGradient id="grad1_4" x1="0%" y1="0%" x2="100%" y2="100%"><stop offset="30%" stop-color="#aac7c9" stop-opacity="1"></stop><stop offset="70%" stop-color="#bbd1d2" stop-opacity="1"></stop></linearGradient></defs><defs><linearGradient id="grad1_5" x1="0%" y1="0%" x2="100%" y2="100%"><stop offset="30%" stop-color="#aac7c9" stop-opacity="1"></stop><stop offset="70%" stop-color="#99bec0" stop-opacity="1"></stop></linearGradient></defs><defs><linearGradient id="grad1_6" x1="0%" y1="0%" x2="100%" y2="100%"><stop offset="30%" stop-color="#88b4b7" stop-opacity="1"></stop><stop offset="70%" stop-color="#99bec0" stop-opacity="1"></stop></linearGradient></defs><defs><linearGradient id="grad1_7" x1="0%" y1="0%" x2="100%" y2="100%"><stop offset="30%" stop-color="#88b4b7" stop-opacity="1"></stop><stop offset="70%" stop-color="#76abae" stop-opacity="1"></stop></linearGradient></defs><defs><linearGradient id="grad2_0" x1="0%" y1="0%" x2="100%" y2="100%"><stop offset="30%" stop-color="#eeeeee" stop-opacity="1"></stop><stop offset="70%" stop-color="#eeeeee" stop-opacity="1"></stop></linearGradient></defs><defs><linearGradient id="grad2_1" x1="0%" y1="0%" x2="100%" y2="100%"><stop offset="30%" stop-color="#dde4e5" stop-opacity="1"></stop><stop offset="70%" stop-color="#eeeeee" stop-opacity="1"></stop></linearGradient></defs><defs><linearGradient id="grad2_2" x1="0%" y1="0%" x2="100%" y2="100%"><stop offset="30%" stop-color="#dde4e5" stop-opacity="1"></stop><stop offset="70%" stop-color="#ccdbdb" stop-opacity="1"></stop></linearGradient></defs><defs><linearGradient id="grad2_3" x1="0%" y1="0%" x2="100%" y2="100%"><stop offset="30%" stop-color="#bbd1d2" stop-opacity="1"></stop><stop offset="70%" stop-color="#ccdbdb" stop-opacity="1"></stop></linearGradient></defs><defs><linearGradient id="grad2_4" x1="0%" y1="0%" x2="100%" y2="100%"><stop offset="30%" stop-color="#bbd1d2" stop-opacity="1"></stop><stop offset="70%" stop-color="#aac7c9" stop-opacity="1"></stop></linearGradient></defs><defs><linearGradient id="grad2_5" x1="0%" y1="0%" x2="100%" y2="100%"><stop offset="30%" stop-color="#99bec0" stop-opacity="1"></stop><stop offset="70%" stop-color="#aac7c9" stop-opacity="1"></stop></linearGradient></defs><defs><linearGradient id="grad2_6" x1="0%" y1="0%" x2="100%" y2="100%"><stop offset="30%" stop-color="#99bec0" stop-opacity="1"></stop><stop offset="70%" stop-color="#88b4b7" stop-opacity="1"></stop></linearGradient></defs><defs><linearGradient id="grad2_7" x1="0%" y1="0%" x2="100%" y2="100%"><stop offset="30%" stop-color="#76abae" stop-opacity="1"></stop><stop offset="70%" stop-color="#88b4b7" stop-opacity="1"></stop></linearGradient></defs><g transform="translate(600, 0)"><path d="M0 486.7C-58.8 460 -117.6 433.3 -167.2 403.7C-216.8 374.1 -257.3 341.7 -307.6 307.6C-357.9 273.5 -418.2 237.8 -449.7 186.3C-481.2 134.7 -484 67.4 -486.7 0L0 0Z" fill="#7fb0b2"></path><path d="M0 425.9C-51.5 402.5 -102.9 379.2 -146.3 353.3C-189.7 327.4 -225.1 299 -269.1 269.1C-313.2 239.3 -365.9 208.1 -393.5 163C-421.1 117.9 -423.5 58.9 -425.9 0L0 0Z" fill="#90b9bb"></path><path d="M0 365.1C-44.1 345 -88.2 325 -125.4 302.8C-162.6 280.6 -192.9 256.3 -230.7 230.7C-268.4 205.1 -313.6 178.4 -337.3 139.7C-360.9 101.1 -363 50.5 -365.1 0L0 0Z" fill="#a2c3c4"></path><path d="M0 304.2C-36.8 287.5 -73.5 270.8 -104.5 252.3C-135.5 233.8 -160.8 213.5 -192.2 192.2C-223.7 170.9 -261.4 148.6 -281.1 116.4C-300.8 84.2 -302.5 42.1 -304.2 0L0 0Z" fill="#b3ccce"></path><path d="M0 243.4C-29.4 230 -58.8 216.7 -83.6 201.9C-108.4 187.1 -128.6 170.8 -153.8 153.8C-179 136.8 -209.1 118.9 -224.8 93.1C-240.6 67.4 -242 33.7 -243.4 0L0 0Z" fill="#c4d6d7"></path><path d="M0 182.5C-22.1 172.5 -44.1 162.5 -62.7 151.4C-81.3 140.3 -96.5 128.1 -115.3 115.3C-134.2 102.6 -156.8 89.2 -168.6 69.9C-180.5 50.5 -181.5 25.3 -182.5 0L0 0Z" fill="#d5dfe0"></path><path d="M0 121.7C-14.7 115 -29.4 108.3 -41.8 100.9C-54.2 93.5 -64.3 85.4 -76.9 76.9C-89.5 68.4 -104.5 59.5 -112.4 46.6C-120.3 33.7 -121 16.8 -121.7 0L0 0Z" fill="#e5e9e9"></path><path d="M0 60.8C-7.4 57.5 -14.7 54.2 -20.9 50.5C-27.1 46.8 -32.2 42.7 -38.4 38.4C-44.7 34.2 -52.3 29.7 -56.2 23.3C-60.2 16.8 -60.5 8.4 -60.8 0L0 0Z" fill="#eeeeee"></path></g><g transform="translate(0, 900)"><path d="M0 -486.7C53.2 -460 106.3 -433.2 172.2 -415.7C238.1 -398.3 316.7 -390.2 344.2 -344.2C371.6 -298.1 347.9 -214.1 363.1 -150.4C378.3 -86.7 432.5 -43.4 486.7 0L0 0Z" fill="#7fb0b2"></path><path d="M0 -425.9C46.5 -402.5 93 -379 150.7 -363.8C208.3 -348.5 277.2 -341.5 301.2 -301.2C325.2 -260.9 304.4 -187.3 317.7 -131.6C331 -75.9 378.5 -37.9 425.9 0L0 0Z" fill="#90b9bb"></path><path d="M0 -365.1C39.9 -345 79.7 -324.9 129.2 -311.8C178.6 -298.7 237.6 -292.7 258.1 -258.1C278.7 -223.6 260.9 -160.6 272.3 -112.8C283.7 -65 324.4 -32.5 365.1 0L0 0Z" fill="#a2c3c4"></path><path d="M0 -304.2C33.2 -287.5 66.4 -270.7 107.6 -259.8C148.8 -248.9 198 -243.9 215.1 -215.1C232.3 -186.3 217.4 -133.8 226.9 -94C236.4 -54.2 270.3 -27.1 304.2 0L0 0Z" fill="#b3ccce"></path><path d="M0 -243.4C26.6 -230 53.2 -216.6 86.1 -207.9C119.1 -199.2 158.4 -195.1 172.1 -172.1C185.8 -149.1 173.9 -107 181.5 -75.2C189.2 -43.4 216.3 -21.7 243.4 0L0 0Z" fill="#c4d6d7"></path><path d="M0 -182.5C19.9 -172.5 39.9 -162.4 64.6 -155.9C89.3 -149.4 118.8 -146.3 129.1 -129.1C139.4 -111.8 130.4 -80.3 136.2 -56.4C141.9 -32.5 162.2 -16.3 182.5 0L0 0Z" fill="#d5dfe0"></path><path d="M0 -121.7C13.3 -115 26.6 -108.3 43.1 -103.9C59.5 -99.6 79.2 -97.6 86 -86C92.9 -74.5 87 -53.5 90.8 -37.6C94.6 -21.7 108.1 -10.8 121.7 0L0 0Z" fill="#e5e9e9"></path><path d="M0 -60.8C6.6 -57.5 13.3 -54.1 21.5 -52C29.8 -49.8 39.6 -48.8 43 -43C46.5 -37.3 43.5 -26.8 45.4 -18.8C47.3 -10.8 54.1 -5.4 60.8 0L0 0Z" fill="#eeeeee"></path></g></svg>