<svg id="visual" viewBox="0 0 900 600" width="900" height="600" xmlns="http://www.w3.org/2000/svg" xmlns:xlink="http://www.w3.org/1999/xlink" version="1.1"><rect x="0" y="0" width="900" height="600" fill="#222831"></rect><path d="M0 351L129 440L257 410L386 371L514 437L643 411L771 444L900 418L900 601L771 601L643 601L514 601L386 601L257 601L129 601L0 601Z" fill="#76abae"></path><path d="M0 406L129 450L257 423L386 405L514 411L643 446L771 426L900 465L900 601L771 601L643 601L514 601L386 601L257 601L129 601L0 601Z" fill="#95bbbe"></path><path d="M0 447L129 509L257 444L386 500L514 490L643 470L771 465L900 486L900 601L771 601L643 601L514 601L386 601L257 601L129 601L0 601Z" fill="#b3ccce"></path><path d="M0 502L129 510L257 537L386 518L514 482L643 499L771 495L900 513L900 601L771 601L643 601L514 601L386 601L257 601L129 601L0 601Z" fill="#d0ddde"></path><path d="M0 556L129 540L257 531L386 563L514 534L643 558L771 545L900 571L900 601L771 601L643 601L514 601L386 601L257 601L129 601L0 601Z" fill="#eeeeee"></path></svg>